<?xml version="1.0" encoding="utf-8"?>
<?xml-stylesheet type="text/xsl" href="rss1.xsl"?>
<rss version="2.0" xmlns:atom="http://www.w3.org/2005/Atom" xmlns:content="http://purl.org/rss/1.0/modules/content/" xmlns:dc="http://purl.org/dc/elements/1.1/" xmlns:media="http://search.yahoo.com/mrss/">
<channel>
 <title>Getty</title>
 <link>http://www.gettyimg.com/</link>
 <atom:link href="http://www.gettyimg.com/" rel="self" type="application/rss+xml" />

 
                <item>
                <title><![CDATA[【UPSCALED】Mary J. Blige feat. U2 - One [1080p AI Upscale | PCM]]]></title>
                <link><![CDATA[https://sharemania.us/threads/mary-j-blige-feat-u2-one-1080p-ai-upscale-pcm.223708/]]></link>
                <description><![CDATA[<article>
<blockquote class="messageText SelectQuoteContainer ugc baseHtml">
<b><img src="https://images2.imgbox.com/c8/16/lOBvzstn_o.jpg" class="bbCodeImage LbImage" alt="[​IMG]" data-url="https://images2.imgbox.com/c8/16/lOBvzstn_o.jpg" style=""> <br>
<br>
Genre: <span style="color: #0059b3">Hip Hop, Pop</span> <br>
Style: <span style="color: #0059b3">RnB/Swing, Ballad</span> <br>
Year: <span style="color: #0059b3">2006</span> <br>
Video Source: <span style="color: #0059b3">DVD, Promo</span><br>
Audio Source: <span style="color: #0059b3">Qobuz</span></b><br>
<br>
"<b>One</b>" is a song by Irish rock band U2. It is the third track from their seventh album, <i>Achtung Baby</i> (1991), and it was released as the record's third single in February 1992.<br>
<br>
American singer Mary J. Blige covered "One" for her seventh studio album, <i>The Breakthrough</i>, with U2 and released it as the second international single from the album. After being invited to join the group on stage at their New York gig in 2005, Blige performed the track with U2 and received a standing ovation. The song was then recorded featuring Blige on lead vocals, with Bono supplying additional vocals and the band performing the music. It was released on 3 April 2006, having already been featured heavily on BBC Radio 1's playlist, and has been a staple record on Capital FM's playlist since late January.<br>
<br>
The music video, directed by Paul Hunter, was shot in black and white. It shows Blige and the band performing the song on stage.<br>
<br>
The song was a major commercial success in Europe, reaching number two in Ireland, Italy, Switzerland and the United Kingdom and topping the Norwegian Singles Chart for six weeks. The cover also reached number one in Austria for a week and reached the top 10 in several other European countries.<br>
<br>
In May 2006, Blige performed the song at the finale of <i>American Idol</i> with finalist Elliott Yamin, ahead of its full release to American radio. It was also used by ABC for its end-of-season montage after the 2006 FIFA World Cup final and Fox for its end-of-season montage after game five of the 2006 World Series.<br>
<br>
<b>Release Info</b><br>
The video track is upscaled from 480i to 1080p with Topaz Video AI.<br>
The PCM track is lossless, synced and edited with Adobe Audition.<br>
The timed lyrics are synced and edited to match the music video.<br>
Enable the subtitles to see the lyrics.<br>
<br>
<div class="ToggleTriggerAnchor bbCodeSpoilerContainer">
<button type="button" class="button bbCodeSpoilerButton ToggleTrigger Tooltip JsOnly" data-target="> .SpoilerTarget"><span>Spoiler: <span class="SpoilerTitle">Media Info</span></span></button>
<div class="SpoilerTarget bbCodeSpoilerText">
<div class="bbCodeBlock bbCodeCode">
<div class="type">Code:</div>
<pre>General
Unique ID                      : 242154392728230197141075825742576258600 (0xB62D3D57369FE28A0396F7DC5C4A8E28)
Complete name                  : Mary J. Blige feat. U2 - One.mkv
Format                         : Matroska
Format version                 : Version 4 / Version 2
File size                      : 544 MiB
Duration                       : 4 min 26 s
Overall bit rate mode          : Variable
Overall bit rate               : 17.2 Mb/s
Frame rate                     : 29.970 FPS
Encoded date                   : 2023-06-30 00:03:15 UTC
Writing application            : mkvmerge v76.0 ('Celebration') 64-bit
Writing library                : libebml v1.4.4 + libmatroska v1.7.1

Video
ID                             : 1
Format                         : AVC
Format/Info                    : Advanced Video Codec
Format profile                 : High@L4
Format settings                : CABAC / 4 Ref Frames
Format settings, CABAC         : Yes
Format settings, Reference fra : 4 frames
Codec ID                       : V_MPEG4/ISO/AVC
Duration                       : 4 min 26 s
Bit rate mode                  : Variable
Bit rate                       : 15.7 Mb/s
Maximum bit rate               : 16.0 Mb/s
Width                          : 1 920 pixels
Height                         : 1 080 pixels
Display aspect ratio           : 16:10
Original display aspect ratio  : 0.643
Frame rate mode                : Constant
Frame rate                     : 29.970 (29970/1000) FPS
Original frame rate            : 29.970 (30000/1001) FPS
Color space                    : YUV
Chroma subsampling             : 4:2:0
Bit depth                      : 8 bits
Scan type                      : Progressive
Bits/(Pixel*Frame)             : 0.253
Stream size                    : 499 MiB (92%)
Default                        : Yes
Forced                         : No
Color range                    : Limited
Color primaries                : BT.601 PAL
Transfer characteristics       : BT.470 System B/G
Matrix coefficients            : FCC 73.682

Audio
ID                             : 2
Format                         : PCM
Format settings                : Little / Signed
Codec ID                       : A_PCM/INT/LIT
Duration                       : 4 min 26 s
Bit rate mode                  : Constant
Bit rate                       : 1 411.2 kb/s
Channel(s)                     : 2 channels
Sampling rate                  : 44.1 kHz
Frame rate                     : 25.003 FPS (1764 SPF)
Bit depth                      : 16 bits
Stream size                    : 44.8 MiB (8%)
Language                       : English
Default                        : Yes
Forced                         : No

Text
ID                             : 3
Format                         : UTF-8
Codec ID                       : S_TEXT/UTF8
Codec ID/Info                  : UTF-8 Plain Text
Duration                       : 4 min 7 s
Bit rate                       : 39 b/s
Frame rate                     : 0.222 FPS
Count of elements              : 55
Stream size                    : 1.18 KiB (0%)
Title                          : Lyrics
Language                       : English
Default                        : No
Forced                         : No
</pre>
</div></div>
</div><br>
<div class="bbCodeBlock bbCodeVfcHH HiddenContent">
<div class="attribution type">Hidden Content:</div>
<blockquote>You must reply before you can see the hidden data contained here.</blockquote>
</div>
<div class="messageTextEndMarker">&nbsp;</div>
</blockquote>
</article>]]></description>
                <author><![CDATA[ADHDerby]]></author>
                </item>

                
                <item>
                <title><![CDATA[【Music Videos】Chris Brown - Don't Wake Me Up 720p (Extended) (vjstreet Pool)]]></title>
                <link><![CDATA[https://sharemania.us/threads/chris-brown-dont-wake-me-up-720p-extended-vjstreet-pool.223707/]]></link>
                <description><![CDATA[<article>
<blockquote class="messageText SelectQuoteContainer ugc baseHtml">
<img src="https://i.imgur.com/xwfV3aV.jpg" class="bbCodeImage LbImage" alt="[​IMG]" data-url="https://i.imgur.com/xwfV3aV.jpg" style=""> <br>
<img src="https://i.imgur.com/95JzaHt.jpg" class="bbCodeImage LbImage" alt="[​IMG]" data-url="https://i.imgur.com/95JzaHt.jpg" style=""> <br>
<span style="font-size: 18px"><b>Chris Brown - Don't Wake Me Up (Extended)</b></span><br>
BPM:128<br>
File size:79.59 Mb<br>
Video format:H264<br>
Video codec:ffh264<br>
Code:C19131<br>
Video bitrate:2682288<br>
Size:1280x720<br>
Length:03:39<br>
FPS:23.9760<br>
Audio format:MP4A<br>
Audio codec:ffaac<br>
Audio bitrate:320216<br>
Audio samplerate:44100<br>
Ripped From <a href="https://www.vjstreet.com/" target="_blank" class="externalLink" rel="nofollow">vjstreet</a><br>
<b><br>
[/URL]
<div class="bbCodeBlock bbCodeVfcHH HiddenContent">
<div class="attribution type">Hidden Content:</div>
<blockquote>You must reply before you can see the hidden data contained here.</blockquote>
</div></b>
<div class="messageTextEndMarker">&nbsp;</div>
</blockquote>
</article>]]></description>
                <author><![CDATA[gamerfronts]]></author>
                </item>

                </channel></rss>